<svg width="78" height="78" viewBox="0 0 78 78" fill="none" xmlns="http://www.w3.org/2000/svg">
<path d="M36.957 21.5916C36.1893 15.0125 35.3787 8.06606 35.3787 0H42.6213C42.6213 7.97546 41.8146 14.9131 41.0479 21.4995C40.4233 26.8671 39.8258 32.0015 39.7149 37.2743C43.3516 33.4809 46.5329 29.4587 49.8654 25.2453C53.9742 20.0505 58.3134 14.5654 64.0165 8.86205L69.138 13.9835C63.4984 19.623 58.0217 23.9579 52.8224 28.0734L52.8175 28.0771C48.5825 31.4297 44.5312 34.6367 40.7258 38.2851C45.9791 38.1742 51.0726 37.5798 56.408 36.9572C62.9871 36.1893 69.934 35.3787 78 35.3787V42.6213C70.0249 42.6213 63.0872 41.8142 56.5011 41.0479L56.4962 41.0475C51.1298 40.4231 45.997 39.826 40.7258 39.7149C44.5166 43.3489 48.5367 46.5288 52.7473 49.859L52.7539 49.8646C57.9489 53.9739 63.4343 58.3126 69.138 64.0165L64.0165 69.138C58.377 63.4986 54.0423 58.0223 49.9274 52.8234L49.9177 52.8099L49.9095 52.7992C46.5611 48.5708 43.3581 44.5259 39.7149 40.7258C39.8258 45.9986 40.4233 51.1329 41.0479 56.5005C41.8146 63.087 42.6213 70.0245 42.6213 78H35.3787C35.3787 69.934 36.1893 62.9875 36.957 56.4084L36.9585 56.3977C37.5804 51.066 38.1742 45.9755 38.2851 40.7258C34.6419 44.5259 31.4389 48.5708 28.0905 52.7992L28.0823 52.8099L28.0726 52.8234C23.9577 58.0223 19.623 63.4986 13.9835 69.138L8.86205 64.0165C14.5657 58.3126 20.0511 53.9739 25.2461 49.8646L25.2527 49.859C29.4633 46.5288 33.4835 43.3489 37.2743 39.7149C32.0015 39.8262 26.8669 40.4235 21.4989 41.0479C14.9128 41.8142 7.97519 42.6213 0 42.6213V35.3787C8.06606 35.3787 15.0129 36.1893 21.592 36.9572C26.9274 37.5798 32.021 38.1742 37.2743 38.2851C33.4673 34.6353 29.4144 31.4274 25.1776 28.0734C19.9783 23.9579 14.5015 19.623 8.86205 13.9835L13.9835 8.86205C19.6866 14.5654 24.0258 20.0505 28.1346 25.2453C31.4672 29.4585 34.6484 33.4807 38.2851 37.2739C38.1742 32.0243 37.5804 26.934 36.9585 21.6023L36.957 21.5916Z" fill="#FC542F"/>
</svg>
